<?xml version="1.0" standalone="no"?>
<!DOCTYPE svg PUBLIC "-//W3C//DTD SVG 20010904//EN"
 "http://www.w3.org/TR/2001/REC-SVG-20010904/DTD/svg10.dtd">
<svg version="1.0" xmlns="http://www.w3.org/2000/svg"
 width="1440.000000pt" height="711.000000pt" viewBox="0 0 1440.000000 711.000000"
 preserveAspectRatio="xMidYMid meet">

<g transform="translate(0.000000,711.000000) scale(0.100000,-0.100000)"
fill="#000000" stroke="none">
<path d="M0 6319 c0 -839 -1 -819 45 -819 9 0 23 -6 30 -12 8 -7 21 -18 29
-25 20 -17 9 -103 -17 -125 -11 -10 -26 -18 -34 -18 -7 0 -13 -11 -13 -25 0
-14 -4 -25 -10 -25 -5 0 -10 -9 -10 -20 0 -11 -4 -20 -10 -20 -5 0 -10 -13
-10 -30 0 -23 5 -30 19 -30 10 0 21 -7 25 -15 3 -8 15 -15 26 -15 13 0 20 -7
20 -20 0 -11 5 -20 10 -20 6 0 10 5 10 10 0 6 25 10 56 10 30 0 62 6 69 13 36
31 46 37 65 37 15 0 20 -6 20 -25 0 -22 4 -25 36 -25 l37 0 -7 38 c-3 20 -6
43 -6 50 0 8 -15 12 -43 12 -53 0 -67 13 -67 62 0 21 -4 38 -10 38 -5 0 -10
18 -10 40 0 22 4 40 10 40 5 0 12 11 16 25 5 20 13 25 43 27 65 3 114 -3 127
-16 8 -9 45 -14 106 -14 55 -1 94 -5 96 -12 5 -13 42 -13 42 0 0 6 9 10 20 10
11 0 20 -4 20 -10 0 -6 57 -10 150 -10 83 0 150 -4 150 -9 0 -5 68 -12 150
-16 83 -4 150 -11 150 -15 0 -5 44 -11 98 -14 138 -7 312 -28 312 -38 0 -4 44
-8 98 -8 57 0 117 -6 146 -15 29 -9 89 -15 147 -15 53 0 99 -4 101 -9 3 -9
161 -29 306 -37 45 -3 82 -10 82 -15 0 -5 31 -9 69 -9 49 0 74 -5 85 -15 8 -8
28 -15 45 -15 17 0 31 -4 31 -9 0 -5 32 -12 70 -16 39 -4 70 -11 70 -16 0 -5
9 -9 19 -9 11 0 21 -6 23 -12 3 -9 35 -14 101 -16 78 -3 100 -1 112 12 18 18
61 22 67 6 1 -5 54 -12 116 -16 61 -4 112 -11 112 -16 0 -4 29 -8 63 -8 35 0
86 -7 113 -15 29 -9 89 -15 147 -15 58 0 97 -4 97 -10 0 -5 13 -10 29 -10 16
0 34 -7 41 -15 7 -8 19 -15 26 -15 8 0 14 -10 14 -25 0 -14 4 -25 9 -25 6 0
11 -219 14 -557 4 -584 22 -1096 38 -1101 5 -2 9 -60 9 -128 0 -76 4 -124 10
-124 6 0 10 -31 10 -74 0 -41 4 -76 8 -78 5 -1 16 -173 25 -381 15 -345 15
-381 1 -417 -9 -22 -20 -40 -25 -40 -5 0 -9 -5 -9 -11 0 -25 -36 -38 -106 -39
-62 0 -75 -3 -100 -26 -19 -17 -25 -28 -16 -31 16 -6 15 -63 -2 -85 -14 -19
-96 -26 -96 -8 0 5 -11 12 -25 16 -18 4 -25 13 -25 30 0 13 5 24 11 24 11 0
39 24 39 34 0 3 -16 8 -35 12 -28 5 -35 11 -35 30 0 24 0 24 -115 24 -70 0
-115 4 -115 10 0 6 -30 10 -70 10 -40 0 -70 -4 -70 -10 0 -6 -27 -10 -60 -10
-39 0 -70 -6 -86 -16 -19 -13 -42 -16 -106 -12 -49 3 -84 10 -86 16 -3 9 -71
12 -243 12 -136 0 -239 4 -239 9 0 5 -43 12 -95 16 -52 4 -95 11 -95 16 0 5 5
9 10 9 6 0 10 4 10 9 0 4 -27 11 -60 15 -33 4 -60 11 -60 16 0 6 -7 10 -16 10
-8 0 -22 7 -30 15 -9 9 -34 15 -60 15 -24 0 -44 5 -44 10 0 15 -487 14 -492
-2 -3 -8 -52 -11 -171 -10 -99 0 -167 -3 -167 -9 0 -5 -16 -9 -35 -9 -19 0
-35 5 -35 10 0 6 -9 10 -20 10 -11 0 -20 5 -20 10 0 6 -22 10 -50 10 -27 0
-50 -4 -50 -10 0 -6 -33 -10 -79 -10 -54 0 -81 -4 -85 -12 -5 -10 -7 -10 -12
0 -3 6 -21 12 -39 12 -18 0 -35 5 -37 10 -2 6 -45 11 -106 11 -56 1 -102 5
-102 9 0 5 -63 11 -140 15 -77 4 -140 11 -140 16 0 5 -81 9 -180 9 l-180 0 0
-1080 0 -1080 1714 0 1714 0 6 73 c3 39 9 114 12 165 4 50 10 92 15 92 5 0 9
79 9 175 0 96 4 175 9 175 5 0 12 42 16 92 5 51 10 87 12 81 3 -7 11 -13 19
-13 11 0 14 -22 14 -115 0 -70 -4 -115 -10 -115 -6 0 -10 -53 -10 -140 0 -87
-4 -140 -10 -140 -13 0 -13 -43 0 -56 7 -7 5 -22 -5 -48 -13 -30 -13 -41 -4
-52 9 -11 9 -24 0 -53 -6 -21 -11 -57 -11 -80 l0 -41 3685 0 3685 0 0 24 c0
14 -7 31 -15 40 -8 8 -15 19 -15 25 0 6 -4 11 -10 11 -5 0 -10 11 -10 25 0 14
-4 25 -10 25 -5 0 -10 10 -10 23 0 13 -7 32 -15 43 -17 22 -20 54 -5 54 6 0
10 -4 10 -10 0 -5 7 -10 15 -10 9 0 15 -9 15 -25 0 -14 5 -25 10 -25 6 0 10
-9 10 -20 0 -11 4 -28 9 -38 5 -9 17 -38 26 -64 9 -27 21 -48 26 -48 5 0 9 -7
9 -15 0 -13 201 -15 1750 -15 l1751 0 -1 3018 c0 1659 -3 3052 -7 3095 -5 66
-8 77 -24 77 -11 0 -19 -4 -19 -9 0 -4 -27 -11 -60 -15 -33 -4 -60 -11 -60
-16 0 -6 -16 -10 -35 -10 -19 0 -35 -4 -35 -10 0 -5 -9 -10 -19 -10 -11 0 -26
-7 -35 -15 -20 -20 -132 -21 -152 -1 -8 8 -14 19 -14 25 0 6 -11 11 -25 11
l-25 0 0 123 c0 108 3 131 25 187 14 35 25 79 25 97 0 18 5 33 10 33 6 0 10
-7 10 -15 0 -11 11 -15 41 -15 22 0 48 -4 58 -9 28 -15 291 -26 291 -12 0 6 9
11 20 11 19 0 20 7 20 260 l0 260 -870 0 c-767 0 -870 -2 -870 -15 0 -8 5 -15
10 -15 6 0 10 -9 10 -20 0 -11 -4 -20 -10 -20 -5 0 -10 -13 -10 -30 0 -16 -4
-30 -9 -30 -5 0 -11 -18 -15 -40 -3 -22 -11 -40 -16 -40 -6 0 -10 -16 -10 -35
0 -19 -4 -35 -10 -35 -5 0 -10 -11 -10 -25 0 -22 -4 -25 -35 -25 -31 0 -35 3
-35 25 0 14 -4 25 -10 25 -6 0 -10 37 -10 90 0 53 4 90 10 90 17 0 11 22 -12
42 -19 16 -20 21 -8 28 8 6 24 10 35 10 11 0 27 5 35 10 10 6 -41 10 -152 10
l-168 0 0 -40 c0 -22 -4 -40 -10 -40 -5 0 -10 -11 -10 -25 0 -14 -4 -25 -10
-25 -5 0 -10 -10 -10 -21 0 -12 -11 -32 -25 -45 -14 -13 -25 -30 -25 -38 0 -8
-9 -18 -20 -21 -11 -3 -20 -11 -20 -16 0 -15 -60 -10 -76 6 -9 8 -26 15 -39
15 -15 0 -26 7 -30 20 -3 11 -12 20 -18 20 -30 0 -47 40 -47 110 0 40 4 70 10
70 6 0 10 7 10 15 0 13 -44 15 -335 15 -223 0 -335 -3 -335 -10 0 -6 7 -13 15
-16 8 -4 15 -10 15 -16 0 -23 51 -58 92 -62 23 -2 44 -9 46 -15 2 -6 19 -11
38 -11 33 0 45 -12 24 -25 -5 -3 -10 -14 -10 -24 0 -23 41 -125 52 -129 4 -2
8 -13 8 -24 0 -22 30 -78 42 -78 4 0 8 -7 8 -15 0 -8 9 -15 20 -15 11 0 20 -4
20 -10 0 -5 5 -10 11 -10 23 0 39 -30 39 -73 0 -50 -8 -57 -71 -57 -34 0 -39
3 -39 24 0 13 -7 29 -15 36 -8 7 -15 18 -15 26 0 7 -9 16 -20 19 -11 3 -20 11
-20 16 0 5 -16 9 -35 9 -19 0 -35 -4 -35 -10 0 -5 -6 -10 -14 -10 -8 0 -21 -6
-28 -13 -7 -7 -25 -20 -41 -30 -26 -17 -29 -17 -57 0 -17 9 -30 21 -30 24 0 4
-9 11 -20 14 -11 3 -20 15 -20 26 0 10 -4 19 -8 19 -14 0 -42 93 -42 137 0 23
-4 45 -10 48 -5 3 -10 46 -10 96 0 53 -4 89 -10 89 -5 0 -10 16 -10 35 l0 35
-840 0 c-740 0 -840 -2 -840 -15 0 -8 4 -15 8 -15 4 0 14 -16 21 -35 7 -19 16
-35 21 -35 5 0 12 -17 16 -37 4 -21 10 -40 13 -43 3 -3 19 -22 34 -42 16 -21
37 -38 48 -38 10 0 19 -5 19 -11 0 -11 24 -39 34 -39 6 0 36 -25 82 -67 13
-12 24 -33 24 -47 0 -24 48 -128 62 -134 5 -2 8 -15 8 -28 0 -13 5 -24 10 -24
6 0 10 -10 10 -22 1 -26 22 -58 39 -58 6 0 11 -7 11 -15 0 -8 5 -15 10 -15 6
0 10 -7 10 -15 0 -9 16 -31 35 -49 19 -19 35 -39 35 -44 0 -5 6 -12 14 -15 8
-3 19 -22 26 -41 6 -20 16 -36 21 -36 5 0 9 -11 9 -25 0 -14 5 -25 10 -25 6 0
10 -11 10 -24 0 -13 5 -26 12 -28 7 -3 14 -32 16 -76 2 -40 8 -72 13 -72 5 0
9 -18 9 -40 0 -22 5 -40 10 -40 6 0 10 7 10 15 0 8 6 15 13 15 7 0 19 9 27 20
18 26 30 25 30 0 0 -25 51 -80 74 -80 9 0 16 -8 16 -19 0 -10 7 -21 15 -25 8
-3 15 -14 15 -24 0 -19 34 -62 49 -62 5 0 12 -15 15 -34 4 -21 14 -37 25 -41
29 -9 44 -57 36 -112 -4 -26 -9 -118 -11 -203 -3 -85 -9 -157 -14 -160 -5 -3
-11 -17 -13 -30 -2 -14 -12 -27 -22 -29 -19 -3 -45 -24 -45 -36 0 -10 -28 -35
-39 -35 -6 0 -11 -7 -11 -15 0 -8 -9 -15 -20 -15 -11 0 -20 -4 -20 -10 0 -5
-5 -10 -11 -10 -13 0 -39 -25 -39 -39 0 -5 -9 -13 -20 -16 -11 -3 -20 -11 -20
-16 0 -5 -11 -9 -25 -9 -14 0 -25 -5 -25 -11 0 -13 -25 -39 -39 -39 -5 0 -20
-10 -33 -23 -57 -56 -119 -76 -132 -41 -10 26 -7 132 4 139 6 4 10 61 10 138
0 73 5 150 10 172 5 22 13 97 16 168 4 70 10 127 14 127 4 0 10 34 12 76 2 41
8 78 13 82 19 13 35 63 35 107 0 25 5 45 10 45 6 0 10 11 10 25 0 14 -4 25
-10 25 -5 0 -10 8 -10 17 0 9 -9 36 -21 60 -16 32 -18 47 -10 57 15 18 4 26
-35 26 -28 0 -34 5 -45 35 -7 19 -17 35 -21 35 -4 0 -8 7 -8 15 0 8 -4 15 -9
15 -5 0 -12 11 -15 25 -4 14 -11 25 -16 25 -6 0 -10 10 -10 21 0 23 -34 59
-57 59 -7 0 -13 3 -13 8 0 10 -58 42 -76 42 -8 0 -14 4 -14 10 0 5 -16 12 -35
16 -19 3 -35 10 -35 15 0 5 -16 9 -35 9 -19 0 -35 4 -35 10 0 5 -11 12 -25 16
-14 3 -25 10 -25 15 0 5 -45 9 -100 9 -60 0 -100 4 -100 10 0 6 -16 10 -35 10
-19 0 -35 -4 -35 -10 0 -5 -13 -10 -29 -10 -16 0 -31 -6 -35 -15 -3 -9 -18
-15 -40 -15 -19 0 -41 7 -50 15 -8 8 -28 15 -44 15 -17 0 -32 5 -34 11 -2 6
-32 13 -66 16 -34 3 -62 10 -62 14 0 5 -22 9 -49 9 -30 0 -51 5 -53 12 -3 8
-45 13 -132 16 l-127 4 -29 -31 c-17 -17 -35 -31 -40 -31 -5 0 -12 -11 -16
-25 -3 -14 -10 -25 -15 -25 -5 0 -9 -16 -9 -35 l0 -35 -55 0 c-30 0 -55 5 -55
10 0 6 9 10 20 10 40 0 54 66 19 90 -12 8 -27 21 -35 28 -7 6 -22 12 -33 12
-12 0 -21 4 -21 9 0 5 -16 12 -35 15 -19 4 -35 11 -35 16 0 6 -13 10 -30 10
-20 0 -30 5 -30 15 0 8 5 15 10 15 6 0 10 11 10 25 0 14 5 25 10 25 6 0 10 11
10 25 0 14 4 25 9 25 5 0 13 10 17 23 4 12 15 29 25 38 23 20 24 55 4 76 -9 8
-34 17 -56 20 -22 3 -42 10 -45 14 -3 5 -12 9 -20 9 -9 0 -22 7 -30 15 -19 18
-31 85 -16 85 6 0 14 10 18 23 4 12 16 30 27 39 13 12 22 35 25 68 l5 50 -567
0 -566 0 80 -77 c44 -43 100 -96 124 -118 26 -23 45 -49 45 -62 1 -12 6 -23
13 -25 15 -5 15 -71 0 -76 -7 -2 -12 -10 -12 -18 0 -8 -9 -14 -20 -14 -11 0
-20 -4 -20 -10 0 -5 -21 -10 -46 -10 -27 0 -51 -6 -60 -15 -9 -8 -31 -15 -50
-15 -19 0 -34 -4 -34 -10 0 -5 22 -10 49 -10 31 0 53 -5 61 -15 7 -8 21 -15
31 -15 11 0 19 -4 19 -10 0 -5 11 -10 25 -10 18 0 25 5 25 20 0 13 9 22 25 26
14 3 25 10 25 15 0 5 9 9 20 9 11 0 20 -4 20 -10 0 -5 9 -10 20 -10 15 0 20
-7 20 -25 0 -20 5 -25 24 -25 17 0 26 -7 30 -25 4 -14 12 -25 19 -25 21 0 47
-38 47 -69 0 -33 -26 -42 -91 -34 -31 5 -41 11 -45 29 -9 35 -54 34 -54 -1 0
-18 -5 -25 -18 -25 -30 0 -60 -33 -64 -70 -2 -24 -9 -36 -21 -38 -11 -2 -37
-22 -59 -44 -30 -30 -45 -38 -61 -34 -12 3 -28 6 -34 6 -7 0 -13 10 -13 21 0
12 -8 29 -17 38 -22 20 -53 77 -53 97 0 8 -4 14 -9 14 -4 0 -11 19 -14 41 -3
23 -11 45 -17 49 -9 6 -9 13 0 31 15 29 45 59 60 59 5 0 10 11 10 24 0 20 -6
25 -43 30 -53 8 -77 0 -77 -25 0 -24 -8 -24 -29 0 -9 10 -26 21 -38 25 -13 4
-23 12 -23 17 0 5 -9 9 -21 9 -11 0 -27 6 -34 13 -33 29 -45 37 -55 37 -5 0
-10 7 -10 15 0 8 -9 15 -19 15 -11 0 -21 6 -24 13 -6 17 -126 14 -138 -4 -6
-10 -11 -11 -16 -3 -5 6 -18 14 -31 18 -12 4 -22 12 -22 17 0 5 -9 9 -20 9
-11 0 -20 4 -20 9 0 5 -13 12 -30 16 -16 4 -32 15 -35 26 -6 19 -35 27 -35 9
0 -5 -24 -10 -54 -10 -29 0 -67 -7 -82 -15 -16 -8 -37 -15 -46 -15 -10 0 -18
-4 -18 -10 0 -5 -15 -10 -32 -10 -41 0 -118 -31 -118 -47 0 -6 -9 -15 -20 -18
-11 -3 -27 -13 -35 -21 -11 -11 -45 -17 -123 -20 -59 -3 -108 -9 -110 -15 -2
-5 -8 -9 -13 -9 -11 0 -24 -10 -80 -62 -22 -21 -46 -38 -54 -38 -7 0 -22 -11
-33 -25 -15 -19 -29 -25 -60 -25 -51 0 -100 -43 -109 -95 -3 -19 -10 -35 -14
-35 -5 0 -9 -9 -9 -20 0 -26 -30 -60 -52 -60 -11 0 -18 -7 -18 -19 0 -11 -8
-22 -17 -25 -21 -7 -53 -59 -53 -87 0 -10 -4 -19 -10 -19 -14 0 -13 -247 0
-252 18 -6 16 -93 -2 -112 -18 -18 -58 -22 -58 -6 0 6 -11 10 -24 10 -14 0
-31 7 -40 15 -8 8 -22 15 -30 15 -9 0 -16 4 -16 10 0 5 -16 12 -35 16 -19 3
-35 10 -35 15 0 5 -11 9 -25 9 -20 0 -25 5 -25 25 0 24 -3 25 -59 25 -40 0
-63 5 -71 15 -9 10 -32 15 -75 15 -56 0 -63 2 -75 25 -7 14 -19 25 -27 25 -7
0 -13 11 -13 24 0 13 -6 26 -13 29 -17 5 -13 337 4 347 8 6 8 9 -2 14 -11 5
-11 7 -1 12 8 4 12 35 12 105 0 59 4 99 10 99 6 0 10 36 10 89 0 56 5 102 15
124 8 21 15 67 15 106 0 43 4 71 11 73 7 2 9 13 5 26 -7 22 -11 22 -187 22
l-179 0 0 -165 c0 -91 -4 -165 -9 -165 -4 0 -11 -51 -15 -112 -4 -62 -11 -115
-15 -118 -9 -5 -17 -66 -27 -202 -4 -43 -10 -78 -15 -78 -5 0 -9 -133 -9 -295
0 -162 4 -295 8 -295 4 0 16 -22 26 -50 16 -45 36 -67 36 -40 0 21 18 9 36
-25 15 -29 24 -35 51 -35 17 0 38 -7 47 -15 8 -8 22 -15 30 -15 9 0 16 -4 16
-9 0 -5 30 -11 67 -13 39 -2 68 -9 71 -16 2 -7 17 -12 34 -12 16 0 36 -7 44
-15 9 -8 26 -15 40 -15 13 0 24 -4 24 -10 0 -5 9 -10 19 -10 10 0 21 -7 25
-15 3 -8 15 -15 26 -15 11 0 20 -4 20 -10 0 -5 9 -10 21 -10 11 0 27 -7 35
-15 9 -8 24 -15 35 -15 10 0 19 -4 19 -10 0 -5 18 -10 39 -10 22 0 46 -7 55
-15 8 -8 28 -15 45 -15 17 0 31 -4 31 -9 0 -5 20 -17 45 -28 25 -10 45 -22 45
-27 0 -5 8 -16 19 -25 10 -9 21 -26 25 -38 4 -13 12 -23 17 -23 5 0 9 -11 9
-25 0 -14 5 -25 10 -25 6 0 10 -5 10 -10 0 -6 18 -29 39 -50 36 -36 44 -40 90
-40 31 0 55 -6 65 -15 8 -8 19 -15 25 -15 6 0 11 -7 11 -15 0 -8 5 -15 10 -15
6 0 10 -27 10 -60 0 -59 0 -59 33 -65 17 -3 42 -7 55 -8 12 -1 25 -9 28 -19 3
-10 10 -18 15 -18 5 0 9 -7 9 -15 0 -8 4 -15 8 -15 5 0 15 -11 22 -25 7 -14
19 -25 27 -25 7 0 13 -11 13 -24 0 -13 6 -27 13 -30 10 -5 10 -7 0 -12 -7 -3
-13 -12 -13 -20 0 -11 -19 -14 -90 -14 -86 0 -90 -1 -96 -24 -4 -16 -15 -26
-34 -30 -17 -3 -31 -14 -35 -26 -3 -11 -15 -20 -25 -20 -10 0 -25 -7 -34 -15
-8 -8 -19 -15 -24 -15 -5 0 -15 -11 -22 -25 -11 -21 -21 -25 -57 -25 -39 0
-43 -2 -43 -25 0 -14 -5 -25 -11 -25 -17 0 -39 -27 -39 -49 0 -11 -4 -23 -10
-26 -5 -3 -10 -24 -10 -46 0 -21 5 -39 10 -39 6 0 10 -40 10 -100 0 -60 -4
-100 -10 -100 -6 0 -10 -28 -10 -65 0 -37 -4 -65 -10 -65 -5 0 -10 -22 -10
-50 0 -27 -4 -50 -10 -50 -5 0 -10 -9 -10 -20 0 -11 -7 -23 -15 -26 -8 -4 -15
-14 -15 -24 0 -10 -9 -21 -19 -25 -27 -8 -28 -24 -18 -170 11 -157 2 -295 -19
-295 -8 0 -14 -7 -14 -15 0 -8 -4 -15 -10 -15 -5 0 -10 -9 -10 -20 0 -11 -4
-20 -10 -20 -5 0 -10 -6 -10 -14 0 -8 -6 -16 -12 -19 -16 -5 -14 -263 2 -323
20 -70 -6 -334 -32 -334 -4 0 -8 -11 -8 -25 0 -14 -4 -25 -10 -25 -5 0 -10
-10 -10 -22 0 -13 -7 -32 -15 -42 -8 -11 -15 -41 -15 -66 0 -25 -5 -51 -11
-57 -8 -8 -8 -13 0 -17 6 -4 11 -15 11 -24 0 -9 7 -30 15 -46 8 -15 15 -37 15
-47 0 -11 5 -19 10 -19 6 0 10 -11 10 -25 0 -19 5 -25 21 -25 11 0 27 -6 34
-12 31 -28 44 -38 50 -38 10 0 35 -28 35 -39 0 -6 4 -11 8 -11 5 0 15 -11 22
-25 7 -14 19 -25 27 -25 9 0 13 -15 13 -49 0 -72 -13 -81 -121 -81 -49 0 -89
-4 -89 -9 0 -6 -20 -13 -45 -17 -25 -3 -48 -10 -51 -15 -9 -16 -64 -10 -64 6
0 8 -4 15 -10 15 -6 0 -10 28 -10 63 0 35 -5 88 -10 119 -7 38 -7 64 0 83 8
21 8 30 -1 36 -7 4 -14 37 -16 81 -2 40 -8 75 -13 76 -6 2 -10 10 -10 18 0 8
-4 14 -10 14 -6 0 -11 113 -14 292 -2 161 -11 433 -20 603 -9 171 -19 399 -22
508 -3 108 -10 197 -15 197 -5 0 -9 95 -9 215 0 226 -1 222 48 267 12 12 22
28 22 35 0 7 4 13 8 13 4 0 27 18 50 40 22 22 45 40 50 40 5 0 15 11 22 25 7
14 17 25 22 25 4 0 8 11 8 25 0 17 6 25 18 25 16 1 52 61 52 88 0 7 5 12 10
12 6 0 10 32 10 75 0 43 -4 75 -10 75 -5 0 -10 18 -10 40 0 22 -3 40 -8 40 -8
0 -42 89 -42 111 0 8 -9 20 -20 27 -11 7 -20 17 -20 22 0 5 -8 19 -17 30 -15
17 -30 20 -95 20 -57 0 -78 3 -78 13 0 7 -9 19 -20 27 -11 8 -20 25 -20 37 0
18 -6 23 -25 23 -20 0 -25 5 -25 25 0 18 -5 25 -20 25 -14 0 -21 9 -26 35 -3
19 -10 35 -14 35 -5 0 -15 6 -22 13 -25 23 -116 47 -182 47 -37 0 -66 4 -66
10 0 6 -9 10 -19 10 -21 0 -81 51 -81 69 0 6 -7 11 -15 11 -8 0 -15 7 -15 15
0 8 -4 15 -10 15 -5 0 -10 6 -10 14 0 7 -7 27 -15 42 -8 16 -15 44 -15 62 0
17 -4 32 -10 32 -5 0 -10 9 -10 20 0 11 -4 20 -8 20 -5 0 -16 25 -26 55 -9 30
-21 55 -27 55 -5 0 -9 11 -9 25 0 14 -4 25 -9 25 -5 0 -12 27 -15 60 -3 33 -9
87 -12 121 -4 39 -2 65 5 72 6 6 11 21 11 34 0 14 6 23 15 23 8 0 15 9 15 20
0 11 8 24 18 27 18 7 42 28 42 37 0 14 36 46 52 46 10 0 18 5 18 10 0 6 -4 10
-10 10 -5 0 -10 24 -10 53 0 37 -6 61 -17 75 -53 62 -56 66 -45 70 8 2 12 32
12 83 0 46 4 79 10 79 6 0 10 35 10 85 0 81 -1 87 -30 117 -16 17 -30 38 -30
46 0 8 -22 36 -50 62 -27 26 -50 53 -50 59 0 6 -9 11 -20 11 -14 0 -20 7 -20
23 0 12 -7 31 -15 41 -8 11 -15 30 -15 43 l0 23 -1860 0 -1860 0 0 -791z
m13388 474 c2 -21 10 -34 23 -38 15 -5 19 -16 19 -56 0 -27 -4 -49 -10 -49 -5
0 -10 -11 -10 -25 0 -14 -4 -25 -10 -25 -5 0 -12 -16 -16 -35 -3 -19 -10 -38
-15 -41 -5 -3 -9 -16 -9 -30 0 -13 -4 -24 -10 -24 -6 0 -10 -78 -10 -215 l0
-215 -80 0 c-47 0 -80 4 -80 10 0 6 -14 10 -31 10 -17 0 -37 7 -45 15 -9 8
-26 15 -40 15 -13 0 -24 5 -24 10 0 6 -14 10 -31 10 -17 0 -37 7 -45 15 -9 8
-33 15 -55 15 -21 0 -39 5 -39 10 0 6 -9 10 -19 10 -11 0 -26 7 -35 15 -8 8
-22 15 -30 15 -9 0 -16 4 -16 10 0 5 -16 12 -35 16 -19 3 -35 10 -35 15 0 5
-7 9 -15 9 -9 0 -15 9 -15 25 0 14 -4 25 -10 25 -5 0 -10 11 -10 25 0 14 -4
25 -10 25 -5 0 -10 9 -10 19 0 20 -31 81 -41 81 -3 0 -17 9 -30 21 -22 19 -24
27 -24 124 1 86 4 105 20 121 13 13 20 15 23 6 4 -14 32 -17 32 -3 0 4 48 10
106 13 58 3 109 9 112 15 13 20 136 42 240 42 47 1 82 5 82 11 0 6 27 10 60
10 33 0 60 4 60 9 0 11 41 19 85 17 26 -1 30 -5 33 -33z m-1868 -568 c0 -8 3
-15 8 -15 4 0 16 -16 26 -35 17 -31 24 -35 58 -35 38 0 68 17 68 39 0 6 20 11
45 11 41 0 45 -2 45 -25 0 -14 -4 -25 -9 -25 -4 0 -9 -73 -9 -162 -1 -89 -5
-164 -10 -167 -4 -3 -14 -20 -21 -38 -7 -17 -24 -40 -38 -50 -14 -10 -31 -24
-38 -30 -8 -7 -23 -13 -34 -13 -12 0 -21 -4 -21 -10 0 -5 -20 -10 -45 -10
l-45 0 0 40 c0 40 5 48 67 100 7 5 19 10 28 10 8 0 15 4 15 9 0 5 11 12 25 15
22 6 25 12 25 51 0 43 -1 44 -35 51 -27 5 -35 11 -35 28 0 12 -9 28 -20 36
-11 8 -20 20 -20 27 0 7 -7 13 -15 13 -8 0 -15 5 -15 10 0 6 -25 10 -56 10
-31 0 -70 7 -88 15 -36 17 -66 57 -47 63 6 2 11 15 11 28 0 14 6 24 14 24 8 0
16 7 20 15 3 8 12 15 21 15 8 0 15 5 15 10 0 6 25 10 55 10 42 0 55 -3 55 -15z
m890 -340 c7 -14 17 -25 22 -25 4 0 8 -11 8 -25 0 -14 -4 -25 -10 -25 -5 0
-10 -18 -10 -40 0 -22 5 -40 10 -40 6 0 10 -18 10 -40 0 -22 5 -40 10 -40 6 0
10 -15 10 -32 0 -18 7 -42 15 -52 9 -12 15 -42 15 -78 0 -32 4 -58 10 -58 6 0
10 -13 10 -30 0 -16 5 -30 10 -30 6 0 10 -32 10 -75 0 -43 -4 -75 -10 -75 -5
0 -10 -22 -10 -50 0 -46 -13 -67 -22 -38 -3 8 -12 5 -28 -10 -40 -37 -53 -29
-74 43 -10 36 -22 65 -27 65 -5 0 -9 11 -9 25 0 14 -3 25 -8 25 -4 0 -16 16
-26 35 -11 19 -23 35 -28 35 -4 0 -8 18 -8 39 0 22 -6 42 -12 45 -10 5 -10 7
0 12 6 3 12 19 12 36 0 25 -3 28 -20 23 -14 -5 -20 -2 -20 9 0 9 -7 16 -16 16
-9 0 -14 3 -12 8 24 48 32 62 40 62 4 0 8 18 8 40 0 22 5 40 10 40 6 0 10 11
10 25 0 14 4 25 9 25 5 0 12 11 15 25 4 14 11 25 16 25 6 0 10 11 10 25 0 14
5 25 10 25 6 0 10 7 10 15 0 8 4 15 9 15 5 0 12 11 15 25 4 14 10 25 15 25 4
0 14 -11 21 -25z m-6156 -86 c6 -30 39 -69 58 -69 13 0 38 -26 38 -39 0 -6 12
-11 26 -11 31 0 84 -50 84 -79 0 -20 -5 -21 -125 -21 -70 0 -125 4 -125 9 0 5
-10 11 -22 13 -22 3 -23 8 -26 93 -4 125 -1 135 47 135 35 0 39 -3 45 -31z
m1760 -140 c16 -40 14 -79 -5 -79 -5 0 -9 -30 -9 -66 l0 -66 -42 7 c-24 4 -44
11 -46 16 -2 5 -24 9 -48 9 -24 0 -44 4 -44 9 0 5 -20 12 -45 15 -41 7 -45 10
-45 36 0 20 6 31 20 35 11 3 20 11 20 16 0 5 11 9 25 9 14 0 25 5 25 10 0 16
59 70 75 70 8 0 15 5 15 10 0 6 20 10 44 10 42 0 45 -2 60 -41z m-4684 -195
c0 -36 -4 -64 -10 -64 -5 0 -10 4 -10 10 0 9 -20 36 -50 68 -11 12 -12 16 -2
20 6 2 12 9 12 15 0 7 14 12 30 13 l30 1 0 -63z m3270 -75 c0 -6 6 -17 14 -25
8 -8 19 -14 25 -14 6 0 11 -7 11 -15 0 -8 5 -15 10 -15 6 0 10 -29 10 -67 0
-62 -6 -91 -32 -168 -6 -16 -13 -43 -16 -59 -8 -49 -112 -138 -112 -97 0 5
-11 12 -25 15 -14 4 -25 11 -25 16 0 6 -9 10 -20 10 -11 0 -20 5 -20 10 0 6
-7 10 -15 10 -8 0 -15 5 -15 11 0 23 -29 37 -90 41 -36 3 -66 10 -68 16 -2 7
-22 12 -44 12 -32 0 -46 6 -65 28 -13 15 -26 38 -30 51 -8 33 4 165 17 169 5
2 10 10 10 18 0 8 5 14 10 14 6 0 10 7 10 16 0 14 8 16 52 11 29 -4 54 -11 56
-17 2 -5 10 -10 18 -10 8 0 14 -4 14 -10 0 -5 11 -12 25 -16 14 -3 25 -10 25
-15 0 -5 9 -9 20 -9 11 0 20 4 20 9 0 5 20 12 45 15 25 4 45 11 45 17 0 5 11
9 25 9 14 0 25 5 25 10 0 6 9 10 20 10 11 0 23 7 26 15 7 17 44 21 44 4z
m1520 -29 c0 -5 11 -10 25 -10 25 0 65 -31 65 -50 0 -5 4 -10 9 -10 5 0 13
-26 17 -57 4 -32 11 -69 16 -82 6 -17 4 -30 -7 -47 -8 -13 -15 -30 -15 -39 0
-8 -4 -15 -10 -15 -5 0 -10 -13 -10 -30 0 -16 -4 -30 -9 -30 -31 0 -22 -115 9
-125 11 -3 22 -15 25 -26 4 -10 15 -19 25 -19 28 0 105 -81 125 -132 9 -26 26
-56 36 -67 10 -11 19 -24 19 -30 0 -5 6 -12 13 -15 10 -5 10 -7 0 -12 -7 -3
-13 -17 -13 -30 0 -13 -4 -24 -9 -24 -5 0 -14 -20 -20 -45 -13 -51 0 -85 31
-85 10 0 18 -4 18 -10 0 -5 -20 -10 -45 -10 -33 0 -45 -4 -45 -15 0 -8 -3 -15
-6 -15 -3 0 -12 7 -20 15 -9 8 -26 15 -39 15 -16 0 -26 8 -31 23 l-7 22 -10
-21 c-9 -22 -60 -40 -78 -28 -5 3 -9 -2 -9 -10 0 -20 -60 -23 -61 -3 0 10 -2
10 -6 0 -3 -9 -33 -13 -99 -13 -53 0 -94 -4 -94 -10 0 -5 -16 -12 -35 -16 -19
-3 -35 -10 -35 -15 0 -5 -9 -9 -19 -9 -11 0 -28 -11 -39 -25 -12 -15 -30 -25
-46 -25 -19 0 -27 6 -32 25 -3 14 -10 25 -15 25 -5 0 -9 10 -9 23 0 12 -10 29
-21 37 -12 8 -27 21 -35 28 -7 6 -17 12 -23 12 -6 0 -11 16 -11 36 0 27 -5 37
-20 41 -11 3 -20 9 -20 14 0 5 -7 9 -15 9 -8 0 -15 4 -15 9 0 5 -10 13 -22 17
-20 6 -31 13 -63 42 -7 6 -21 12 -30 12 -9 0 -23 7 -31 15 -9 8 -31 15 -50 15
-19 0 -34 5 -34 10 0 6 -33 10 -80 10 -47 0 -80 -4 -80 -10 0 -5 -4 -10 -10
-10 -5 0 -10 9 -10 19 0 27 -59 40 -75 17 -7 -9 -20 -16 -29 -16 -9 0 -16 -4
-16 -10 0 -5 -7 -10 -15 -10 -16 0 -35 -30 -35 -57 0 -10 -9 -25 -20 -33 -11
-8 -20 -20 -20 -27 0 -7 -6 -13 -14 -13 -27 0 -77 -35 -82 -57 -4 -14 -14 -23
-25 -23 -10 0 -19 -4 -19 -10 0 -5 -9 -10 -20 -10 -11 0 -20 5 -20 10 0 6 5
10 10 10 6 0 10 23 10 50 0 28 5 50 10 50 6 0 10 7 10 15 0 8 7 15 16 15 11 0
14 6 9 21 -5 13 -2 25 6 29 7 5 14 28 15 51 1 24 7 45 13 47 6 2 11 21 11 43
0 21 4 39 8 39 5 0 15 19 22 43 8 23 20 51 27 62 7 11 13 30 13 42 0 13 5 23
10 23 6 0 10 10 10 22 0 30 49 158 61 158 5 0 9 7 9 15 0 8 9 15 19 15 11 0
21 5 23 12 3 7 31 14 69 16 52 3 69 1 82 -13 9 -9 17 -12 17 -6 0 6 5 11 10
11 6 0 10 -9 10 -19 0 -12 9 -23 23 -27 12 -4 30 -16 40 -27 17 -20 17 -20 37
3 17 19 20 37 20 111 0 48 5 91 10 94 6 3 10 15 10 25 0 13 9 22 28 26 15 3
33 7 40 10 27 8 112 -49 112 -75 0 -5 9 -13 20 -16 24 -8 80 3 80 15 0 11 65
20 178 26 71 4 92 9 92 20 0 8 9 14 20 14 11 0 23 7 26 15 4 8 15 15 25 15 10
0 19 5 19 10 0 6 27 10 60 10 33 0 60 -4 60 -10z m-2190 -205 c0 -37 -4 -65
-10 -65 -5 0 -10 -11 -10 -25 0 -16 -6 -25 -15 -25 -8 0 -15 -4 -15 -10 0 -5
-13 -10 -28 -10 -23 0 -33 8 -51 40 -12 22 -30 47 -39 57 -12 12 -13 18 -4 21
6 2 12 12 12 23 0 46 21 59 92 59 l68 0 0 -65z m746 -689 c20 -20 18 -26 -9
-26 -21 0 -34 -8 -84 -50 -16 -13 -103 -13 -103 0 0 6 -9 10 -20 10 -37 0 -16
40 28 54 12 4 22 12 22 17 0 15 149 11 166 -5z m1994 -225 c0 -5 10 -13 22
-17 37 -12 -4 -24 -69 -21 -64 4 -87 20 -35 25 17 2 32 7 32 13 0 5 11 9 25 9
14 0 25 -4 25 -9z m-140 -31 c0 -5 -9 -10 -20 -10 -11 0 -20 5 -20 10 0 6 9
10 20 10 11 0 20 -4 20 -10z m-3185 -30 c5 -23 12 -30 31 -30 18 0 24 -5 24
-21 0 -30 20 -46 68 -54 23 -4 42 -11 42 -16 0 -5 15 -9 33 -9 17 0 41 -7 51
-15 11 -8 30 -15 43 -15 13 0 23 -4 23 -10 0 -5 13 -10 28 -10 16 0 37 -7 48
-15 10 -8 27 -15 37 -15 18 0 29 -7 71 -46 12 -12 32 -25 44 -28 12 -4 22 -12
22 -17 0 -5 9 -9 21 -9 21 0 49 -22 49 -39 0 -5 9 -12 19 -16 20 -6 51 -71 51
-105 0 -15 -7 -20 -25 -20 -14 0 -25 -4 -25 -10 0 -5 -9 -10 -20 -10 -11 0
-20 5 -20 10 0 6 -18 10 -39 10 -37 0 -102 25 -109 43 -2 4 -11 7 -19 7 -9 0
-25 10 -37 23 -12 12 -39 31 -61 42 -22 11 -45 25 -52 30 -7 6 -19 16 -27 23
-8 6 -33 12 -54 12 -31 0 -41 5 -52 25 -7 14 -19 25 -27 25 -7 0 -13 6 -13 13
0 7 -9 19 -20 27 -11 8 -20 20 -20 27 0 7 -4 13 -10 13 -5 0 -10 11 -10 25 0
16 -6 25 -15 25 -9 0 -15 9 -15 25 0 16 -6 25 -15 25 -8 0 -15 6 -15 13 0 8
-9 24 -20 37 -23 27 -26 60 -6 60 8 0 17 -13 21 -30z m3115 -20 c0 -5 -4 -10
-10 -10 -5 0 -10 5 -10 10 0 6 5 10 10 10 6 0 10 -4 10 -10z m1758 -137 c12
-12 13 -18 4 -21 -7 -2 -12 -23 -12 -53 0 -27 -4 -49 -8 -49 -5 0 -14 -18 -21
-40 -11 -36 -31 -56 -31 -30 0 6 5 10 10 10 6 0 10 14 10 30 0 17 5 30 10 30
6 0 10 30 10 70 0 39 3 70 6 70 3 0 13 -8 22 -17z m-3968 -115 c0 -16 -3 -19
-11 -11 -6 6 -8 16 -5 22 11 17 16 13 16 -11z m3820 -28 c0 -5 -4 -10 -10 -10
-5 0 -10 5 -10 10 0 6 5 10 10 10 6 0 10 -4 10 -10z m17 -102 c-3 -7 -5 -2 -5
12 0 14 2 19 5 13 2 -7 2 -19 0 -25z m53 -48 c0 -5 -4 -10 -10 -10 -5 0 -10
-11 -10 -25 0 -14 -4 -25 -10 -25 -5 0 -10 16 -10 35 0 28 4 35 20 35 11 0 20
-4 20 -10z m-4870 -60 c14 -14 20 -33 20 -66 l0 -47 -44 5 c-52 6 -76 26 -76
62 0 14 -4 26 -10 26 -5 0 -10 9 -10 20 0 17 7 20 50 20 37 0 55 -5 70 -20z
m1560 10 c0 -5 -4 -10 -10 -10 -5 0 -10 5 -10 10 0 6 5 10 10 10 6 0 10 -4 10
-10z m2170 -50 c0 -5 -7 -10 -15 -10 -8 0 -15 5 -15 10 0 6 7 10 15 10 8 0 15
-4 15 -10z m1608 -89 c7 -16 16 -46 19 -65 3 -20 10 -39 14 -42 5 -3 9 -14 9
-25 0 -10 5 -19 10 -19 6 0 10 -42 10 -106 0 -93 -2 -105 -16 -100 -9 3 -18 6
-20 6 -2 0 -4 20 -4 45 0 25 5 45 10 45 6 0 10 7 10 15 0 8 -4 15 -10 15 -5 0
-10 11 -10 25 0 16 -6 25 -15 25 -10 0 -15 10 -15 30 0 23 -5 30 -19 30 -15 0
-20 9 -23 43 -3 27 0 48 9 58 7 8 13 23 13 32 0 26 14 20 28 -12z m-4238 -71
c0 -5 25 -10 55 -10 30 0 55 -4 55 -10 0 -5 11 -10 25 -10 l25 0 0 -105 0
-105 -65 0 c-49 0 -67 4 -71 15 -5 11 -22 15 -70 15 -36 0 -64 4 -64 10 0 6
-7 10 -15 10 -8 0 -15 -4 -15 -10 0 -5 -6 -10 -14 -10 -8 0 -16 -7 -20 -15 -4
-11 -21 -15 -66 -15 -33 0 -60 -4 -60 -9 0 -19 -55 -28 -108 -18 -29 6 -52 15
-52 19 0 4 -11 8 -25 8 -16 0 -25 6 -25 15 0 8 -4 15 -10 15 -5 0 -10 7 -10
15 0 8 -4 15 -10 15 -5 0 -10 16 -10 35 0 19 5 35 10 35 6 0 10 7 10 15 0 8 7
15 15 15 8 0 15 5 15 10 0 6 20 10 45 10 36 0 51 -5 69 -25 13 -14 33 -25 45
-25 11 0 21 -5 21 -11 0 -19 28 -39 55 -39 24 0 55 20 55 35 0 14 30 36 58 41
18 4 34 16 41 30 6 14 19 24 31 24 12 0 30 9 42 20 24 22 38 26 38 10z m-900
-100 c0 -5 -4 -10 -10 -10 -5 0 -10 5 -10 10 0 6 5 10 10 10 6 0 10 -4 10 -10z
m2120 -150 c0 -5 -7 -10 -15 -10 -8 0 -15 5 -15 10 0 6 7 10 15 10 8 0 15 -4
15 -10z m1770 0 c0 -5 -4 -10 -10 -10 -5 0 -10 5 -10 10 0 6 5 10 10 10 6 0
10 -4 10 -10z m-4010 -50 c0 -5 22 -10 49 -10 31 0 55 -6 65 -15 8 -8 24 -15
35 -15 12 0 21 -4 21 -9 0 -5 15 -12 34 -15 19 -4 37 -12 40 -19 5 -9 7 -9 12
1 7 14 44 16 44 2 0 -5 11 -10 25 -10 20 0 25 -5 25 -25 0 -14 4 -25 9 -25 5
0 12 -13 16 -30 4 -16 11 -32 16 -35 5 -4 9 -15 9 -26 0 -10 4 -19 9 -19 10 0
20 -43 28 -117 3 -35 1 -53 -6 -53 -6 0 -11 -11 -11 -25 0 -14 -4 -25 -8 -25
-5 0 -13 -12 -19 -27 l-11 -28 -1 27 c-2 51 -20 58 -144 51 -97 -5 -115 -3
-129 11 -9 9 -21 16 -27 16 -16 0 -51 38 -51 55 0 8 -4 15 -9 15 -5 0 -11 10
-15 23 -3 12 -14 32 -26 44 -11 12 -20 31 -20 43 0 11 -4 20 -10 20 -5 0 -10
11 -10 25 0 14 -4 25 -10 25 -5 0 -10 9 -10 20 0 11 -5 29 -11 39 -15 23 -4
71 16 71 8 0 15 5 15 10 0 17 24 39 43 40 9 0 17 -4 17 -10z m3750 0 c0 -5 -4
-10 -10 -10 -5 0 -10 5 -10 10 0 6 5 10 10 10 6 0 10 -4 10 -10z m-174 -86
c-3 -9 -6 -20 -6 -25 0 -5 -4 -9 -10 -9 -5 0 -10 11 -10 25 0 16 6 25 16 25
11 0 14 -5 10 -16z m364 -13 c0 -5 -3 -11 -7 -13 -11 -4 -43 -67 -43 -84 0 -8
-4 -14 -10 -14 -5 0 -10 -7 -10 -15 0 -8 -4 -15 -10 -15 -5 0 -10 -7 -10 -15
0 -8 -9 -15 -19 -15 -30 0 -34 17 -6 24 18 5 25 13 25 31 0 14 5 25 10 25 6 0
10 9 10 19 0 10 7 21 15 25 8 3 15 17 15 31 0 18 5 25 20 25 11 0 20 -4 20 -9z
m-370 -60 c0 -22 31 -81 43 -81 4 0 7 -7 7 -15 0 -10 11 -15 35 -15 19 0 35
-4 35 -10 0 -5 -14 -10 -30 -10 -46 0 -110 66 -110 114 0 20 5 36 10 36 6 0
10 -9 10 -19z m510 -26 c0 -8 5 -15 10 -15 6 0 10 -14 10 -31 0 -17 7 -43 15
-57 20 -39 35 -121 25 -146 -8 -19 -9 -19 -9 6 -1 28 -30 100 -43 106 -5 2 -8
21 -8 43 0 21 -4 39 -10 39 -5 0 -10 16 -10 35 0 19 5 35 10 35 6 0 10 -7 10
-15z m-1144 -49 c8 -8 14 -26 14 -40 0 -14 5 -26 10 -26 6 0 10 -18 10 -40 0
-43 0 -43 -24 -34 -12 5 -16 20 -16 59 0 30 -4 57 -10 60 -11 7 -14 35 -4 35
3 0 12 -6 20 -14z m614 -46 c0 -5 11 -12 25 -16 37 -9 30 -24 -10 -24 -19 0
-35 4 -35 9 0 5 -3 16 -6 25 -4 11 -1 16 10 16 9 0 16 -4 16 -10z m250 1 c0
-5 -10 -11 -22 -13 -14 -2 -24 -12 -28 -28 -5 -22 -7 -23 -13 -6 -13 33 1 56
34 56 16 0 29 -4 29 -9z m-140 -51 c0 -5 -9 -10 -20 -10 -11 0 -20 5 -20 10 0
6 9 10 20 10 11 0 20 -4 20 -10z m517 -546 c14 -13 14 -17 2 -25 -8 -5 -17 -9
-21 -9 -5 0 -8 -11 -8 -25 0 -14 -4 -25 -10 -25 -14 0 -13 43 2 75 13 29 15
30 35 9z m-557 -109 c0 -14 5 -25 10 -25 6 0 10 -16 10 -35 0 -19 -4 -35 -10
-35 -5 0 -10 11 -10 25 0 14 -4 25 -10 25 -5 0 -10 16 -10 35 0 19 5 35 10 35
6 0 10 -11 10 -25z m-1960 -10 c0 -8 -4 -15 -10 -15 -5 0 -10 7 -10 15 0 8 5
15 10 15 6 0 10 -7 10 -15z m-6210 -45 c0 -5 -15 -10 -32 -9 -31 1 -32 1 -8 9
35 11 40 11 40 0z m5828 -25 c7 -14 12 -41 12 -59 0 -19 7 -39 15 -46 8 -7 15
-19 15 -26 0 -8 5 -14 10 -14 6 0 10 -5 10 -10 0 -13 88 -100 101 -100 5 0 9
-16 9 -35 0 -33 -2 -35 -35 -35 -25 0 -43 7 -59 25 -19 20 -33 25 -75 25 -39
0 -51 4 -51 15 0 12 -14 15 -70 15 -38 0 -70 4 -70 9 0 5 -10 13 -22 17 -13 4
-30 15 -39 25 -9 11 -30 22 -48 25 -17 4 -31 10 -31 15 0 5 -20 9 -45 9 -45 0
-45 0 -45 35 0 35 0 35 48 37 26 1 82 0 125 -1 65 -3 77 -1 77 13 0 10 -9 16
-25 16 -14 0 -25 5 -25 10 0 6 16 10 35 10 22 0 35 5 35 13 0 18 46 35 96 36
35 1 43 -3 52 -24z m2092 -60 c0 -8 5 -15 10 -15 6 0 10 -4 10 -10 0 -5 -7
-10 -15 -10 -8 0 -15 -6 -16 -12 -1 -14 -16 29 -18 50 -1 6 6 12 14 12 8 0 15
-7 15 -15z m276 1 c8 -8 14 -29 14 -46 0 -17 7 -47 15 -67 8 -19 15 -46 15
-59 0 -13 5 -24 10 -24 6 0 10 -11 10 -25 0 -14 5 -25 10 -25 6 0 10 -9 10
-19 0 -11 4 -22 9 -25 5 -4 12 -29 16 -56 4 -28 11 -50 16 -50 17 0 10 -67 -8
-74 -23 -9 -30 2 -37 59 -10 89 -18 140 -25 145 -3 3 -14 22 -23 43 -10 20
-22 37 -28 37 -5 0 -10 23 -10 50 0 28 -4 50 -10 50 -5 0 -10 23 -10 50 0 53
3 58 26 36z m631 -248 c-2 -13 -4 -5 -4 17 -1 22 1 32 4 23 2 -10 2 -28 0 -40z
m-2797 -28 c0 -5 -4 -10 -10 -10 -5 0 -10 5 -10 10 0 6 5 10 10 10 6 0 10 -4
10 -10z m2300 -230 c0 -5 -4 -10 -10 -10 -5 0 -10 -7 -10 -15 0 -8 5 -15 10
-15 6 0 10 -7 10 -15 0 -9 -9 -15 -25 -15 -20 0 -25 5 -25 24 0 37 10 56 31
56 10 0 19 -4 19 -10z m-2403 -212 c-3 -8 -6 -5 -6 6 -1 11 2 17 5 13 3 -3 4
-12 1 -19z m-3027 -113 c0 -14 -4 -25 -10 -25 -5 0 -10 -7 -10 -16 0 -21 -54
-74 -75 -74 -8 0 -17 11 -21 25 -5 21 -12 25 -45 25 l-39 0 0 45 0 45 100 0
100 0 0 -25z m6620 -59 c0 -9 -7 -12 -20 -9 -11 3 -20 9 -20 14 0 5 9 9 20 9
11 0 20 -6 20 -14z m120 -226 c0 -5 -4 -10 -10 -10 -5 0 -10 5 -10 10 0 6 5
10 10 10 6 0 10 -4 10 -10z m50 -125 c0 -14 5 -25 10 -25 6 0 10 -16 10 -35 0
-19 5 -35 10 -35 6 0 10 -18 10 -40 0 -22 -4 -40 -10 -40 -5 0 -10 7 -10 15 0
8 -4 15 -8 15 -12 0 -32 62 -39 119 -5 43 -3 51 11 51 10 0 16 -9 16 -25z
m-2291 -112 c20 -11 41 -37 56 -70 30 -63 30 -63 4 -63 -29 0 -119 95 -119
126 0 29 17 30 59 7z m4311 -453 c0 -5 -4 -10 -10 -10 -5 0 -10 5 -10 10 0 6
5 10 10 10 6 0 10 -4 10 -10z m-850 -75 c0 -8 -4 -15 -10 -15 -5 0 -10 7 -10
15 0 8 5 15 10 15 6 0 10 -7 10 -15z"/>
<path d="M7820 4589 c0 -12 -16 -36 -35 -55 -19 -18 -35 -35 -35 -39 0 -12 61
-65 75 -65 8 0 15 -4 15 -10 0 -5 16 -12 35 -16 19 -3 35 -10 35 -15 0 -5 11
-9 24 -9 13 0 27 -6 30 -12 5 -10 7 -10 12 0 4 8 38 12 120 12 115 0 130 5
100 36 -9 9 -35 14 -70 14 -31 0 -56 5 -56 10 0 6 -13 10 -29 10 -42 0 -61 10
-61 31 0 10 -5 19 -10 19 -6 0 -22 25 -36 55 -26 54 -27 55 -70 55 -38 0 -44
-3 -44 -21z"/>
<path d="M8330 4390 c0 -5 9 -10 20 -10 11 0 20 5 20 10 0 6 -9 10 -20 10 -11
0 -20 -4 -20 -10z"/>
<path d="M4780 7086 c0 -21 5 -24 42 -28 59 -5 98 2 98 18 0 8 5 14 10 14 6 0
10 5 10 10 0 6 -33 10 -80 10 -78 0 -80 -1 -80 -24z"/>
<path d="M5122 7085 c6 -14 19 -25 28 -25 9 0 25 -7 36 -15 27 -20 124 -20
124 0 0 8 5 15 10 15 6 0 22 11 36 25 l25 25 -135 0 -136 0 12 -25z"/>
<path d="M8170 7088 c0 -30 42 -78 68 -78 12 0 32 -11 45 -23 17 -18 38 -25
86 -30 36 -3 68 -11 73 -19 7 -10 11 -10 15 0 2 6 11 12 19 12 8 0 14 7 14 15
0 8 5 15 10 15 6 0 10 14 10 30 0 17 5 30 10 30 6 0 10 16 10 35 l0 35 -180 0
-180 0 0 -22z"/>
<path d="M8560 6815 c0 -22 8 -43 20 -55 11 -11 20 -29 20 -40 0 -11 5 -20 10
-20 6 0 10 -11 10 -25 0 -20 6 -25 34 -30 18 -4 44 -5 57 -3 22 3 24 8 27 70
2 51 -1 69 -13 80 -9 7 -27 23 -40 36 -18 17 -36 22 -75 22 l-50 0 0 -35z"/>
<path d="M4623 6438 c0 -89 -4 -133 -12 -136 -14 -5 -15 -82 -1 -82 6 0 10
-11 10 -24 0 -37 10 -56 31 -56 10 0 19 -7 19 -15 0 -10 10 -15 30 -15 17 0
30 -4 30 -10 0 -5 7 -10 15 -10 9 0 15 -9 15 -25 0 -19 5 -25 21 -25 22 0 49
22 49 39 0 6 8 11 19 11 27 0 36 123 13 185 -9 25 -20 45 -24 45 -4 0 -8 34
-8 75 0 47 -4 75 -11 75 -6 0 -17 6 -25 14 -8 8 -14 19 -14 25 0 6 -9 11 -20
11 -19 0 -29 6 -65 38 -7 6 -27 12 -42 12 l-29 0 -1 -132z"/>
<path d="M5240 6560 c0 -5 5 -10 10 -10 6 0 10 5 10 10 0 6 -4 10 -10 10 -5 0
-10 -4 -10 -10z"/>
<path d="M933 5013 c-24 -9 -14 -41 15 -51 32 -11 62 4 62 31 0 23 -43 34 -77
20z"/>
<path d="M1200 4700 c0 -5 -11 -10 -24 -10 -16 0 -26 -7 -30 -22 -3 -13 -16
-36 -30 -51 -20 -23 -36 -29 -80 -34 -31 -3 -56 -10 -56 -14 0 -5 7 -9 15 -9
8 0 15 -4 15 -9 0 -6 20 -13 45 -17 25 -3 45 -11 45 -16 0 -12 26 -38 38 -38
6 0 12 -4 14 -8 2 -5 17 -12 35 -15 26 -5 37 -1 63 23 18 17 43 30 56 30 13 0
24 5 24 10 0 6 30 10 70 10 40 0 70 -4 70 -10 0 -5 16 -10 35 -10 19 0 35 5
35 10 0 6 -9 10 -21 10 -11 0 -27 7 -35 15 -11 10 -36 15 -85 15 -49 0 -69 4
-69 13 0 7 -9 19 -20 27 -11 8 -20 25 -20 37 0 19 5 23 30 23 17 0 30 -5 30
-12 0 -7 4 -19 9 -27 7 -12 15 -8 40 17 28 27 30 34 19 52 -15 23 -82 29 -92
8 -5 -10 -7 -10 -12 0 -7 15 -114 17 -114 2z"/>
<path d="M1770 4651 c0 -5 -10 -11 -22 -13 -19 -2 -24 -10 -26 -40 -2 -21 -7
-38 -13 -38 -5 0 -9 -7 -9 -15 0 -9 -9 -15 -25 -15 -14 0 -25 -4 -25 -8 0 -14
94 -42 143 -42 l47 0 0 64 c0 42 4 66 13 70 10 5 10 7 0 12 -7 3 -13 12 -13
20 0 9 -11 14 -35 14 -19 0 -35 -4 -35 -9z"/>
<path d="M2250 4595 c0 -8 -4 -15 -10 -15 -5 0 -10 -15 -10 -33 0 -18 -5 -38
-11 -44 -8 -8 -8 -13 0 -17 6 -4 11 -18 11 -32 0 -22 4 -24 44 -24 26 0 46 -5
49 -12 4 -10 8 -10 14 -2 4 6 18 14 31 18 20 7 22 14 22 67 0 33 4 59 10 59 6
0 10 11 10 25 0 18 -5 25 -20 25 -11 0 -20 -7 -20 -15 0 -8 -6 -15 -14 -15 -8
0 -21 7 -30 15 -8 8 -28 15 -45 15 -21 0 -31 -5 -31 -15z"/>
<path d="M2558 4579 c-33 -34 -34 -40 -8 -59 21 -15 27 -40 10 -40 -25 0 -6
-19 33 -34 47 -18 187 -22 187 -6 0 6 -4 10 -10 10 -5 0 -10 6 -10 14 0 8 -9
16 -20 18 -33 5 -28 23 8 26 29 3 32 6 32 37 0 40 -11 45 -96 45 -36 0 -64 4
-64 10 0 19 -35 8 -62 -21z"/>
<path d="M1260 3650 c0 -5 -8 -10 -18 -10 -39 0 -61 -76 -69 -243 -5 -120 -17
-137 -93 -137 -27 0 -50 -4 -50 -9 0 -5 -10 -13 -22 -17 -24 -7 -48 -28 -48
-41 0 -5 -8 -15 -19 -22 -10 -8 -26 -37 -34 -65 -39 -126 -40 -134 -29 -163 6
-15 14 -43 17 -60 4 -18 11 -33 16 -33 5 0 9 -10 9 -22 0 -14 12 -31 30 -43
16 -11 30 -23 30 -27 0 -5 9 -8 21 -8 11 0 28 -7 37 -16 13 -13 30 -15 86 -11
128 8 186 42 186 106 0 12 5 21 10 21 6 0 10 33 10 79 0 44 5 92 11 107 9 25
21 126 36 312 2 34 9 62 14 62 5 0 9 45 9 101 0 99 -9 129 -39 129 -6 0 -11 5
-11 10 0 6 -20 10 -45 10 -25 0 -45 -4 -45 -10z m-90 -660 c0 -42 -31 -74 -64
-66 -23 6 -26 11 -26 52 0 45 11 66 40 76 22 8 50 -27 50 -62z"/>
<path d="M480 3575 c0 -8 -5 -15 -10 -15 -14 0 -60 -46 -60 -60 0 -5 -4 -10
-8 -10 -4 0 -16 -22 -27 -50 -11 -27 -23 -50 -27 -50 -4 0 -8 -7 -8 -15 0 -8
-4 -15 -10 -15 -5 0 -10 -15 -10 -34 0 -20 -6 -36 -14 -39 -8 -3 -20 -22 -27
-41 -7 -20 -17 -36 -21 -36 -4 0 -8 -7 -8 -15 0 -8 -4 -15 -10 -15 -5 0 -10
-6 -10 -14 0 -17 -32 -80 -42 -84 -5 -2 -8 -15 -8 -28 0 -13 -4 -24 -10 -24
-5 0 -10 -11 -10 -25 0 -14 -3 -25 -8 -25 -9 0 -42 -90 -42 -114 0 -9 -4 -16
-10 -16 -15 0 -12 -70 4 -86 17 -16 106 -20 106 -4 0 6 9 10 20 10 11 0 20 6
20 14 0 8 3 16 8 18 11 5 42 76 42 98 0 11 5 20 10 20 6 0 10 9 10 20 0 46 47
65 147 61 26 -1 63 -71 63 -119 0 -18 5 -32 10 -32 6 0 10 -9 10 -20 0 -23 29
-60 47 -60 7 0 13 -4 13 -10 0 -5 16 -10 35 -10 19 0 35 5 35 10 0 6 7 10 15
10 8 0 15 6 15 14 0 8 6 16 13 19 10 3 10 13 0 50 -7 26 -13 65 -13 87 0 22
-4 40 -8 40 -4 0 -14 28 -21 63 -8 34 -20 74 -27 89 -8 15 -14 38 -14 53 0 14
-4 25 -10 25 -6 0 -10 26 -10 58 0 32 -4 62 -9 67 -5 6 -11 51 -13 102 -3 83
-5 93 -28 112 -14 11 -30 25 -37 31 -18 15 -53 12 -53 -5z"/>
<path d="M3338 3510 c-7 -16 -16 -30 -20 -30 -5 0 -8 -59 -8 -131 0 -123 -1
-132 -22 -150 -13 -10 -33 -18 -45 -19 -13 0 -23 -4 -23 -10 0 -5 -6 -10 -13
-10 -18 0 -57 -34 -57 -49 0 -6 -4 -11 -9 -11 -4 0 -16 -19 -25 -43 -18 -47
-23 -207 -6 -207 5 0 12 -11 16 -25 3 -14 13 -25 21 -25 8 0 21 -7 29 -15 11
-11 38 -15 99 -15 61 0 88 4 99 15 8 8 22 15 30 15 9 0 18 11 22 25 3 14 10
25 15 25 5 0 9 58 9 129 0 71 4 131 9 133 5 2 11 91 13 199 4 225 2 229 -75
229 -41 0 -47 -3 -59 -30z m-28 -520 c0 -33 -4 -40 -19 -40 -23 0 -33 23 -25
56 4 15 13 24 25 24 15 0 19 -7 19 -40z"/>
<path d="M2500 3500 c0 -5 -8 -10 -18 -10 -23 0 -40 -51 -45 -137 -3 -54 -7
-65 -36 -92 -18 -17 -42 -31 -53 -31 -46 0 -73 -69 -40 -101 12 -10 28 -19 36
-19 42 0 46 -9 46 -101 0 -53 -4 -89 -10 -89 -5 0 -10 -16 -10 -35 0 -19 5
-35 10 -35 6 0 10 -16 10 -35 0 -19 5 -35 10 -35 6 0 10 -7 10 -15 0 -9 9 -15
25 -15 14 0 25 -4 25 -10 0 -5 13 -10 29 -10 17 0 33 5 36 10 3 6 15 10 26 10
15 0 19 7 19 35 0 36 -18 85 -31 85 -12 0 -29 94 -18 104 5 6 9 36 9 68 0 32
4 58 10 58 6 0 10 7 10 15 0 8 6 15 14 15 18 0 76 32 76 43 0 4 7 7 15 7 8 0
15 9 15 21 0 35 -19 59 -46 59 -51 0 -64 38 -43 129 12 52 4 101 -17 101 -8 0
-14 5 -14 10 0 6 -11 10 -25 10 -14 0 -25 -4 -25 -10z"/>
<path d="M1578 3284 c-10 -3 -18 -10 -18 -15 0 -5 -7 -9 -15 -9 -22 0 -75 -56
-75 -80 0 -11 -4 -20 -8 -20 -4 0 -16 -22 -26 -49 -15 -43 -16 -58 -6 -105 6
-31 18 -62 26 -70 8 -8 14 -17 14 -21 0 -3 14 -19 30 -35 29 -28 35 -30 115
-30 47 0 85 4 85 9 0 5 14 11 31 15 32 6 59 27 59 45 0 6 4 11 9 11 12 0 41
81 41 117 0 17 6 34 13 37 10 5 10 7 0 12 -7 3 -13 15 -13 27 1 35 -53 136
-72 137 -9 0 -18 5 -20 12 -5 13 -136 22 -170 12z m93 -154 c5 0 9 -7 9 -15 0
-8 5 -15 10 -15 6 0 10 -11 10 -25 0 -14 -4 -25 -9 -25 -5 0 -12 -9 -16 -19
-15 -47 -80 -37 -89 14 -13 65 13 102 62 89 8 -2 18 -4 23 -4z"/>
<path d="M2778 3189 c-59 -14 -98 -58 -118 -136 -13 -45 -15 -73 -9 -84 5 -10
9 -26 9 -36 0 -10 7 -31 15 -47 8 -15 15 -32 15 -37 0 -13 38 -49 51 -49 6 0
17 -7 25 -15 10 -10 35 -15 68 -15 35 0 58 5 66 15 7 8 19 15 26 15 9 0 14 12
14 34 0 33 -13 46 -47 46 -17 0 -43 24 -43 39 0 6 7 11 15 11 8 0 15 5 15 10
0 6 12 10 26 10 32 0 84 55 84 89 0 32 -30 111 -41 111 -5 0 -9 7 -9 15 0 10
-11 15 -35 15 -19 0 -35 5 -35 10 0 12 -40 11 -92 -1z"/>
<path d="M1960 3170 c0 -5 -5 -10 -10 -10 -17 0 -45 -32 -59 -66 -17 -44 -11
-516 7 -522 6 -2 12 -8 12 -14 0 -20 30 -38 65 -38 27 0 44 8 66 29 28 29 29
32 29 135 0 104 0 106 25 112 14 3 25 10 25 15 0 5 9 9 19 9 11 0 26 7 35 15
8 8 17 15 21 15 10 0 35 28 35 39 0 6 4 11 8 11 15 0 32 66 32 123 0 31 -4 57
-10 57 -5 0 -10 5 -10 10 0 17 -56 70 -74 70 -9 0 -16 5 -16 10 0 6 -40 10
-100 10 -60 0 -100 -4 -100 -10z m150 -149 c0 -5 3 -16 6 -25 5 -12 0 -16 -20
-16 -21 0 -26 5 -26 25 0 18 5 25 20 25 11 0 20 -4 20 -9z"/>
</g>
</svg>
